<svg width="115" height="112" viewBox="0 0 115 112" fill="none" xmlns="http://www.w3.org/2000/svg">
<path d="M56 14C33.6 14 14 32.0133 14 56C14 65.8933 17.4533 74.9933 23.1933 82.18L14 91.42L20.58 98L29.7733 88.8067C37.219 94.7585 46.4678 98.0005 56 98C66.7333 98 77.5133 93.8933 85.68 85.68C89.5916 81.7914 92.6942 77.1665 94.8087 72.0723C96.9233 66.9781 98.0079 61.5156 98 56V14H56ZM73.8733 57.2133L49.7933 78.82C49.0467 79.52 47.88 79.4733 47.18 78.7733C46.8638 78.458 46.671 78.0398 46.6368 77.5946C46.6026 77.1494 46.729 76.7066 46.9933 76.3467L58.38 60.8067L39.48 58.94C39.0182 58.8967 38.5789 58.7204 38.2153 58.4325C37.8517 58.1446 37.5793 57.7575 37.4311 57.318C37.283 56.8785 37.2654 56.4055 37.3806 55.9562C37.4958 55.507 37.7387 55.1007 38.08 54.7867L62.16 33.18C62.9067 32.48 64.0733 32.5267 64.7733 33.2267C65.4267 33.88 65.52 34.9067 64.96 35.6533L53.5733 51.1933L72.4733 53.06C74.5733 53.2467 75.4133 55.8133 73.8733 57.2133Z" fill="#c1121f"/>
</svg>
